<svg enable-background="new 0 0 24 21" viewBox="0 0 24 21" xmlns="http://www.w3.org/2000/svg"><path d="m16 3.6c1 0 1.8-.8 1.8-1.8s-.8-1.8-1.8-1.8-1.8.8-1.8 1.8.8 1.8 1.8 1.8zm3 7.4c-2.8 0-5 2.3-5 5s2.2 5 5 5 5-2.3 5-5-2.2-5-5-5zm0 8.6c-1.9 0-3.5-1.6-3.5-3.5s1.6-3.5 3.5-3.5 3.5 1.6 3.5 3.5-1.6 3.5-3.5 3.5zm-4.2-10.7h4.2v-1.8h-3.2l-1.9-3.3c-.3-.5-.8-.8-1.5-.8-.5 0-.9.2-1.2.5l-3.7 3.7c-.3.3-.5.7-.5 1.2 0 .6.3 1.2.8 1.5l3.3 2v5h1.9v-6.5l-2.2-1.7 2.3-2.4zm-9.8 2.1c-2.8 0-5 2.3-5 5s2.2 5 5 5 5-2.3 5-5-2.2-5-5-5zm0 8.6c-1.9 0-3.5-1.6-3.5-3.5s1.6-3.5 3.5-3.5 3.5 1.5 3.5 3.5-1.6 3.5-3.5 3.5z"/></svg>