<svg enable-background="new 0 0 17 21" viewBox="0 0 17 21" xmlns="http://www.w3.org/2000/svg"><path d="m16.2 3.1c-.2-1.2-1-1.6-2.1-2.1-1.1-.4-3.7-1-5.6-1s-4.5.6-5.6 1c-1.1.5-1.8.9-2.1 2.1l-.8 6.4v8.8h1.4v1.4c0 1.7 2.5 1.7 2.5 0v-1.4h4.5 4.7v1.4c0 1.7 2.5 1.7 2.5 0v-1.4h1.4v-8.8zm-11.2-1.5h3.4 3.6c.7 0 .7 1 0 1h-3.6-3.4c-.7.1-.7-1 0-1zm-2.3 14c-.6 0-1.2-.5-1.2-1.2s.5-1.2 1.2-1.2c.6 0 1.2.5 1.2 1.2-.1.6-.6 1.2-1.2 1.2zm5.7-5.4h-6.2c-.6 0-.7-.4-.7-.9l.6-4.7c.1-.6.3-.9 1-.9h5.3 5.4c.7 0 .9.4 1 .9l.6 4.7c.1.4-.1.9-.7.9zm5.9 5.4c-.6 0-1.2-.5-1.2-1.2s.5-1.2 1.2-1.2c.6 0 1.2.5 1.2 1.2 0 .6-.5 1.2-1.2 1.2z"/></svg>