<svg enable-background="new 0 0 23 23" viewBox="0 0 23 23" xmlns="http://www.w3.org/2000/svg"><g fill="#231f20"><path d="m17 1.5c2.5 0 4.5 2 4.5 4.5v11c0 2.5-2 4.5-4.5 4.5h-11c-2.5 0-4.5-2-4.5-4.5v-11c0-2.5 2-4.5 4.5-4.5zm0-1.5h-11c-3.3 0-6 2.7-6 6v11c0 3.3 2.7 6 6 6h11c3.3 0 6-2.7 6-6v-11c0-3.3-2.7-6-6-6z"/><path d="m11.5 7.1c2.4 0 4.4 2 4.4 4.4s-2 4.4-4.4 4.4-4.4-2-4.4-4.4 2-4.4 4.4-4.4m0-1.5c-3.3 0-5.9 2.7-5.9 5.9s2.7 5.9 5.9 5.9 5.9-2.7 5.9-5.9-2.6-5.9-5.9-5.9z"/><circle cx="17.6" cy="5.4" r="1.3"/></g></svg>