<svg enable-background="new 0 0 20 21" viewBox="0 0 20 21" xmlns="http://www.w3.org/2000/svg"><ellipse cx="14.3" cy="2" rx="2.1" ry="2"/><path d="m19.4 4.6c-.5-.2-1.2-.1-1.4.4l-.9 1.6-4.1-2.3c-.2-.1-.3-.1-.6-.1h-4.5c-.4 0-.7.1-.9.5l-1.7 2.9c-.3.5-.1 1.1.4 1.3.2.1.4.1.5.1.4 0 .8-.2 1-.5l1.4-2.4h1.6l-4.7 8.1h-4.4c-.6 0-1.1.4-1.1 1s.5 1 1.1 1h5c.4 0 .7-.2.9-.5l1.9-3.2 3 2.6-.2 4.9c-.1.5.4 1 1 1h.1c.6 0 1-.4 1.1-.9l.3-5.4c0-.3-.1-.6-.3-.8l-2.6-2.2 2.7-4.6 3.1 1.8c0 .1.4.2.6.1.3-.1.5-.2.7-.5l1.5-2.5c.3-.5.1-1.1-.5-1.4z"/></svg>