<svg enable-background="new 0 0 30 15.8" viewBox="0 0 30 15.8" xmlns="http://www.w3.org/2000/svg"><path d="m23.9 15.8c-.4 0-1.2-.1-2.1-.6-.6-.4-1.2-1-1.8-1.5-.4-.4-1.2-1.2-1.4-1.2-.3.1-.5.9-.5 1.6 0 .1 0 .8-.5 1.2-.4.4-1.1.5-1.2.5h-1.9c-1 0-4.4-.2-7.4-3-3.7-3.4-6.8-9.8-7-10.1-.1-.5-.2-1.2.2-1.6s1.1-.5 1.4-.5h4.1.1c.1 0 .6.1 1 .3s.6.7.6.7.6 1.4 1.5 2.7c1.3 2 1.9 2.5 2.1 2.6.2-.4.3-1.7.2-2.9 0-.5-.1-1.1-.3-1.3-.1-.1-.4-.3-.8-.3l-.7-.6c-.1-.7.6-1.2 1.1-1.4.7-.3 1.8-.4 3.1-.4h.7c1.2 0 1.6.1 2.1.2 1.7.4 1.6 1.7 1.6 3.3v1.6.5c0 .4 0 1 .1 1.3.2-.1.9-.7 2.1-2.5.8-1.2 1.4-2.5 1.5-2.8.2-.4.6-.9 1.6-.9h4.3.4c1 0 1.6.3 1.8.9.3.6.2 1.7-2.4 4.6-.4.4-.7.8-1 1.1-.6.7-1.2 1.4-1.2 1.6.1.1.7.6 1.3 1.1 1.5 1.2 2.5 2.3 3 3.1s.4 1.3.3 1.7c-.4.9-1.6 1-1.9 1h-3.8c-.1 0-.1 0-.3 0zm-5.3-4.9c.9 0 1.7.8 2.5 1.6.5.5 1 1 1.5 1.3.7.4 1.3.4 1.4.4h.1 3.8c.2 0 .4-.1.5-.1 0 0 0-.1-.1-.2-.4-.7-1.4-1.7-2.7-2.7-1.2-1-1.8-1.5-1.9-2.2-.1-.8.5-1.4 1.6-2.7.3-.3.6-.7 1-1.1 1.6-1.8 2-2.6 2.1-3-.2 0-.6 0-.7 0h-4.4c-.2 0-.2 0-.2 0-.2.4-.8 1.8-1.6 3-1.9 2.8-2.8 3.2-3.4 3.2-.2 0-.4 0-.6-.1-1-.6-1-1.8-.9-2.8 0-.1 0-.3 0-.4 0-.6 0-1.2 0-1.7.1-1.7 0-1.7-.4-1.8s-.7-.1-1.9-.2h-.7c-.6 0-1.3 0-1.9.1.1.1.2.2.3.3.6.7.6 2 .6 2.2.1 1.6.1 3.8-1 4.3-.2.1-.4.1-.6.1-.9 0-1.9-.9-3.4-3.3-.8-1.2-1.5-2.7-1.5-2.8 0 0-.1-.1-.1-.1-.1 0-.2-.1-.3-.1h-4s0 0-.1 0c.6 1.2 3.4 6.6 6.5 9.5 2.7 2.5 5.8 2.6 6.4 2.6h1.9s.2-.1.3-.1v-.1c0-.3 0-2.6 1.6-3 .1-.1.2-.1.3-.1z"/></svg>